<svg width="50" height="32" viewBox="0 0 50 32" fill="none" xmlns="http://www.w3.org/2000/svg">
<path opacity="0.07" d="M46.0526 0H3.94737C1.71053 0 0 1.73333 0 4V28C0 30.2667 1.84211 32 3.94737 32H46.0526C48.2895 32 50 30.2667 50 28V4C50 1.73333 48.1579 0 46.0526 0Z" fill="black"/>
<path d="M46.0526 1.33301C47.5 1.33301 48.6842 2.53301 48.6842 3.99967V27.9997C48.6842 29.4663 47.5 30.6663 46.0526 30.6663H3.94737C2.50001 30.6663 1.3158 29.4663 1.3158 27.9997V3.99967C1.3158 2.53301 2.50001 1.33301 3.94737 1.33301H46.0526Z" fill="#006FCF"/>
<path d="M11.8039 13.691L12.8224 16.1923H10.7934L11.8039 13.691ZM32.9553 13.795H29.0382V14.8977H32.8921V16.5497H29.046V17.779H32.9632V18.7643L35.696 15.771L32.9632 12.651L32.9553 13.795ZM14.4513 10.675H19.7079L20.875 13.255L21.9566 10.667H35.6013L37.0197 12.2537L38.4868 10.667H44.7539L40.1237 15.803L44.7066 20.907H38.346L36.9276 19.3203L35.4474 20.907H13.1974L12.5474 19.3203H11.0605L10.4092 20.907H5.26315L9.58684 10.667H14.1L14.4513 10.675ZM25.85 12.1123H22.9039L20.9303 16.827L18.7921 12.1123H15.8684V18.5257L13.1579 12.1123H10.5355L7.40131 19.4617H9.44736L10.0974 17.875H13.5132L14.1632 19.4617H17.7421V14.215L20.046 19.4697H21.6118L23.9013 14.231V19.471H25.8197L25.8513 12.111L25.85 12.1123ZM38.1395 15.803L41.4697 12.1123H39.0724L36.9658 14.4137L34.9289 12.1123H27.1737V19.4697H34.8184L36.9421 17.1523L38.9789 19.4697H41.446L38.1408 15.803H38.1395Z" fill="white"/>
</svg>
