<svg width="50" height="32" viewBox="0 0 50 32" fill="none" xmlns="http://www.w3.org/2000/svg">
<path fill-rule="evenodd" clip-rule="evenodd" d="M45.3947 32H4.60526C2.10526 32 0 29.8667 0 27.3333V4.66667C0 2.13333 2.10526 0 4.60526 0H45.3947C47.8947 0 50 2.13333 50 4.66667V27.3333C50 29.8667 47.8947 32 45.3947 32Z" fill="#EDEDED"/>
<path fill-rule="evenodd" clip-rule="evenodd" d="M4.60527 1.33301C2.76316 1.33301 1.3158 2.79967 1.3158 4.66634V27.333C1.3158 29.1997 2.76316 30.6663 4.60527 30.6663H45.3947C47.2368 30.6663 48.6842 29.1997 48.6842 27.333V4.66634C48.6842 2.79967 47.2368 1.33301 45.3947 1.33301H4.60527Z" fill="white"/>
<path fill-rule="evenodd" clip-rule="evenodd" d="M29.3421 4C30.1316 4.13333 30.921 4.26667 31.5789 4.4C34.4737 4.93333 36.7105 7.06667 37.5 9.86667C37.8947 12 37.6316 14.2667 36.5789 16.1333C35.3947 18.5333 33.8158 20.5333 31.7105 22.1333C28.9473 24.5333 25.6579 26.4 22.1052 27.6C21.3158 27.8667 20.3947 28 19.6052 28C18.1579 28.1333 16.8421 27.0667 16.7105 25.6V24.9333C16.9737 22.1333 18.9473 19.8667 21.7105 19.0667C22.3684 19.0667 23.0263 19.0667 23.5526 19.3333C24.2105 19.6 24.6052 20.4 24.3421 21.2C24.2105 21.4667 24.0789 21.6 23.9474 21.7333C23.421 22.2667 22.8947 22.8 22.3684 23.2C21.8421 23.6 21.4473 24 21.0526 24.5333C20.7895 24.8 20.6579 25.0667 20.5263 25.3333C20.2631 25.8667 20.5263 26.1333 21.0526 26.1333C21.3158 26.1333 21.5789 26.1333 21.8421 26C26.4473 24.2667 30.1316 21.0667 32.5 16.8C32.8947 16.1333 33.0263 15.4667 33.0263 14.6667C33.1579 12.4 31.7105 11.0667 29.6052 11.7333C28.0263 12.2667 26.3158 12.9333 24.8684 13.7333C23.2895 14.5333 21.7105 15.6 20.1316 16.4C18.9473 17.0667 17.6316 17.4667 16.1842 17.6C15.5263 17.7333 14.8684 17.6 14.3421 17.4667C13.0263 17.3333 11.9737 16 12.2368 14.4C12.2368 14.2667 12.2368 14.1333 12.3684 14C13.0263 12.1333 14.2105 10.4 15.7895 9.33333C18.8158 6.93333 22.3684 5.2 26.1842 4.4C26.8421 4.26667 27.6316 4.13333 28.2895 4H29.3421Z" fill="#EB2227"/>
</svg>
