<svg width="50" height="32" viewBox="0 0 50 32" fill="none" xmlns="http://www.w3.org/2000/svg">
<path fill-rule="evenodd" clip-rule="evenodd" d="M45.3947 32H4.60526C2.10526 32 0 29.8667 0 27.3333V4.66667C0 2.13333 2.10526 0 4.60526 0H45.3947C47.8947 0 50 2.13333 50 4.66667V27.3333C50 29.8667 47.8947 32 45.3947 32Z" fill="#EDEDED"/>
<path fill-rule="evenodd" clip-rule="evenodd" d="M4.60527 1.33301C2.76316 1.33301 1.3158 2.79967 1.3158 4.66634V27.333C1.3158 29.1997 2.76316 30.6663 4.60527 30.6663H45.3947C47.2368 30.6663 48.6842 29.1997 48.6842 27.333V4.66634C48.6842 2.79967 47.2368 1.33301 45.3947 1.33301H4.60527Z" fill="white"/>
<path d="M25 28C31.5402 28 36.8421 22.6274 36.8421 16C36.8421 9.37258 31.5402 4 25 4C18.4598 4 13.1579 9.37258 13.1579 16C13.1579 22.6274 18.4598 28 25 28Z" fill="#E2704D"/>
<path fill-rule="evenodd" clip-rule="evenodd" d="M21.8421 15.6004L21.9737 13.7337C21.9737 13.7337 22.8947 13.867 23.1579 13.6004C23.6842 13.2004 23.6842 12.4004 23.8158 12.0004C24.2105 10.1337 26.4474 9.06703 28.8158 9.7337L28.5526 11.6004C28.5526 11.6004 28.421 11.467 28.0263 11.467C26.5789 11.3337 25.921 11.7337 25.7895 13.7337H27.7632L27.5 15.067L24.3421 18.267H26.1842C24.6053 20.0004 22.5 22.1337 21.1842 23.3337L22.8947 19.867H21.4474C22.7632 17.3337 22.7632 17.2004 23.6842 15.467" fill="white"/>
</svg>
