<svg width="50" height="32" viewBox="0 0 50 32" fill="none" xmlns="http://www.w3.org/2000/svg">
<path opacity="0.07" d="M46.0526 0H3.94737C1.71053 0 0 1.73333 0 4V28C0 30.2667 1.84211 32 3.94737 32H46.0526C48.2895 32 50 30.2667 50 28V4C50 1.73333 48.1579 0 46.0526 0Z" fill="black"/>
<path d="M46.0526 1.33301C47.5 1.33301 48.6842 2.53301 48.6842 3.99967V27.9997C48.6842 29.4663 47.5 30.6663 46.0526 30.6663H3.94737C2.50001 30.6663 1.3158 29.4663 1.3158 27.9997V3.99967C1.3158 2.53301 2.50001 1.33301 3.94737 1.33301H46.0526Z" fill="white"/>
<path d="M23.8066 15.9683V20.235H22.4671V9.70164H26.0079C26.4321 9.69436 26.8536 9.77213 27.2481 9.93047C27.6426 10.0888 28.0023 10.3246 28.3066 10.6243C28.5948 10.8968 28.8272 11.2242 28.9904 11.5878C29.1537 11.9514 29.2446 12.344 29.2581 12.7432C29.2715 13.1425 29.2072 13.5405 29.0688 13.9145C28.9303 14.2885 28.7205 14.6312 28.4513 14.923L28.3066 15.0776C27.6882 15.6736 26.8618 15.9976 26.0079 15.9763L23.8066 15.9683ZM23.8066 10.9923V14.7096H26.0408C26.5368 14.7256 27.0158 14.5296 27.3632 14.171C27.6116 13.9085 27.7785 13.5779 27.8429 13.2201C27.9074 12.8623 27.8666 12.4932 27.7257 12.1587C27.5848 11.8243 27.3499 11.5391 27.0503 11.3389C26.7508 11.1386 26.3997 11.032 26.0408 11.0323L23.8066 10.9923ZM32.3382 12.7896C33.1934 12.7496 34.0303 13.0403 34.6776 13.607C35.2632 14.1803 35.575 14.9803 35.5329 15.8056V20.251H34.2579V19.2296H34.1934C33.9648 19.6127 33.6414 19.9287 33.2554 20.1464C32.8693 20.3641 32.4339 20.476 31.9921 20.471C31.2709 20.4946 30.5676 20.2407 30.0237 19.7603C29.766 19.5473 29.5594 19.2776 29.4197 18.9718C29.2799 18.666 29.2107 18.3319 29.2171 17.995C29.2019 17.6544 29.2672 17.3151 29.4075 17.0053C29.5478 16.6955 29.759 16.4241 30.0237 16.2136C30.6729 15.7405 31.4587 15.499 32.2579 15.527C32.9382 15.5003 33.6132 15.651 34.2184 15.9683V15.691C34.2229 15.4617 34.1758 15.2344 34.0807 15.0262C33.9856 14.8181 33.8451 14.6346 33.6697 14.4896C33.3175 14.1652 32.8562 13.9896 32.3803 13.999C32.0346 13.9957 31.6939 14.0817 31.3902 14.249C31.0865 14.4163 30.83 14.6593 30.6447 14.955L29.4671 14.203C29.7869 13.7387 30.2186 13.3651 30.7211 13.1177C31.2237 12.8703 31.7803 12.7574 32.3382 12.7896ZM30.6447 18.027C30.6416 18.1997 30.6804 18.3705 30.7577 18.5244C30.835 18.6783 30.9485 18.8106 31.0882 18.9096C31.3816 19.1443 31.746 19.2683 32.121 19.2603C32.6855 19.259 33.2263 19.0336 33.6289 18.631C34.0303 18.2496 34.2579 17.7176 34.2579 17.1603C33.7514 16.7954 33.1359 16.6192 32.5158 16.6616C32.0343 16.6424 31.5594 16.7798 31.1605 17.0536C31.0025 17.1607 30.8729 17.3055 30.783 17.4752C30.693 17.6449 30.6456 17.8344 30.6447 18.027ZM42.8632 13.027L38.4026 23.4136H37.0237L38.7092 19.7763L35.7829 13.027H37.2342L39.3553 18.207L41.4197 13.027H42.8632Z" fill="#5F6368"/>
<path d="M18.4027 15.045C18.4027 14.6344 18.3711 14.2237 18.3066 13.8184H12.6619V16.1477H15.8869C15.8212 16.5179 15.6825 16.8708 15.479 17.1854C15.2755 17.5 15.0115 17.7697 14.7027 17.9784V19.4904H16.629C17.2147 18.9161 17.6751 18.2238 17.9806 17.4581C18.2861 16.6925 18.4299 15.8704 18.4027 15.045Z" fill="#4285F4"/>
<path d="M12.6698 20.9613C14.1255 21.0017 15.5417 20.4787 16.6303 19.4986L14.7014 17.9786C14.2379 18.2797 13.7127 18.4698 13.1659 18.5343C12.619 18.5989 12.0648 18.5362 11.5454 18.3511C11.026 18.166 10.5552 17.8633 10.1686 17.466C9.782 17.0688 9.48991 16.5874 9.31451 16.0586H7.3382V17.6186C7.83273 18.6226 8.59352 19.4672 9.53524 20.0576C10.477 20.6481 11.5624 20.961 12.6698 20.9613Z" fill="#34A853"/>
<path d="M9.31449 16.0667C9.06421 15.3164 9.06421 14.5036 9.31449 13.7534V12.1934H7.33817C6.91684 13.0353 6.69727 13.966 6.69727 14.91C6.69727 15.854 6.91684 16.7848 7.33817 17.6267L9.31449 16.0667Z" fill="#FBBC04"/>
<path d="M12.6698 11.2529C13.5211 11.2372 14.3441 11.5631 14.9592 12.1596L16.6698 10.4356C15.5791 9.39828 14.1325 8.83248 12.6369 8.85827C11.536 8.86386 10.4582 9.17827 9.52298 9.76664C8.5877 10.355 7.8315 11.1943 7.3382 12.1916L9.31451 13.7529C9.54559 13.033 9.99358 12.4047 10.5954 11.9562C11.1973 11.5078 11.9228 11.2618 12.6698 11.2529Z" fill="#EA4335"/>
</svg>
