<svg width="50" height="32" viewBox="0 0 50 32" fill="none" xmlns="http://www.w3.org/2000/svg">
<path opacity="0.07" d="M46.0526 0H3.94737C1.71053 0 0 1.73333 0 4V28C0 30.2667 1.84211 32 3.94737 32H46.0526C48.2895 32 50 30.2667 50 28V4C50 1.73333 48.1579 0 46.0526 0Z" fill="black"/>
<path d="M46.0526 1.33301C47.5 1.33301 48.6842 2.53301 48.6842 3.99967V27.9997C48.6842 29.4663 47.5 30.6663 46.0526 30.6663H3.94737C2.50001 30.6663 1.3158 29.4663 1.3158 27.9997V3.99967C1.3158 2.53301 2.50001 1.33301 3.94737 1.33301H46.0526Z" fill="white"/>
<path d="M19.7368 25.3337C24.8237 25.3337 28.9474 21.155 28.9474 16.0003C28.9474 10.8457 24.8237 6.66699 19.7368 6.66699C14.65 6.66699 10.5263 10.8457 10.5263 16.0003C10.5263 21.155 14.65 25.3337 19.7368 25.3337Z" fill="#EB001B"/>
<path d="M30.2631 25.3337C35.35 25.3337 39.4737 21.155 39.4737 16.0003C39.4737 10.8457 35.35 6.66699 30.2631 6.66699C25.1763 6.66699 21.0526 10.8457 21.0526 16.0003C21.0526 21.155 25.1763 25.3337 30.2631 25.3337Z" fill="#F79E1B"/>
<path d="M28.9473 16.0004C28.9473 12.8004 27.3684 10.0004 25 8.40039C22.6316 10.1337 21.0526 12.9337 21.0526 16.0004C21.0526 19.0671 22.6316 22.0004 25 23.6004C27.3684 22.0004 28.9473 19.2004 28.9473 16.0004Z" fill="#FF5F00"/>
</svg>
