<svg width="50" height="32" viewBox="0 0 50 32" fill="none" xmlns="http://www.w3.org/2000/svg">
<path d="M45.3947 0.666992H4.60527C2.42519 0.666992 0.657898 2.45785 0.657898 4.66699V27.3337C0.657898 29.5428 2.42519 31.3337 4.60527 31.3337H45.3947C47.5748 31.3337 49.3421 29.5428 49.3421 27.3337V4.66699C49.3421 2.45785 47.5748 0.666992 45.3947 0.666992Z" fill="white" stroke="black" stroke-opacity="0.07"/>
<path d="M40.9868 11.3604C40.5441 11.3371 40.1005 11.3821 39.671 11.4937C39.3421 11.5604 39.0263 11.7204 38.6842 11.8004C38.4013 11.8493 38.1156 11.8805 37.8289 11.8937C37.921 10.5604 37.9868 9.22703 38.0921 7.8937C38.1199 7.71637 38.1121 7.53518 38.0691 7.36099C38.0261 7.1868 37.9488 7.02321 37.8419 6.88001C37.735 6.73682 37.6007 6.61698 37.447 6.52769C37.2933 6.43839 37.1233 6.38148 36.9474 6.36036C36.4787 6.3258 36.0081 6.3258 35.5395 6.36036V5.8137C35.5603 5.65056 35.541 5.48475 35.4835 5.33095C35.4259 5.17715 35.3318 5.04011 35.2095 4.93198C35.0872 4.82385 34.9404 4.74796 34.7822 4.71105C34.624 4.67414 34.4593 4.67734 34.3026 4.72036L33.3816 4.86703L24.171 6.42703V15.867C24.131 16.2806 24.0427 16.6879 23.9079 17.0804C23.8026 17.4937 23.6842 17.9204 23.5658 18.4137C23.5518 18.4428 23.5446 18.4747 23.5446 18.507C23.5446 18.5394 23.5518 18.5713 23.5658 18.6004L28.5 8.82703C28.6312 8.51264 28.8693 8.25634 29.1711 8.10466C29.4729 7.95299 29.8183 7.91598 30.1447 8.00036C30.4648 8.06902 30.7509 8.24954 30.953 8.51034C31.155 8.77114 31.2602 9.09562 31.25 9.42703V22.3604C31.2159 22.7201 31.0507 23.054 30.7868 23.297C30.5228 23.54 30.179 23.6747 29.8224 23.6747C29.4657 23.6747 29.1219 23.54 28.858 23.297C28.594 23.054 28.4288 22.7201 28.3947 22.3604V15.6937H28.2895L24.4474 23.1604C24.2982 23.4537 24.1403 23.7337 23.9737 24.0004C23.806 24.2592 23.5611 24.457 23.2747 24.5649C22.9883 24.6728 22.6754 24.6853 22.3816 24.6004C22.0921 24.5248 21.8366 24.3515 21.6572 24.1092C21.4779 23.8668 21.3853 23.5698 21.3947 23.267V11.787H21.2237L14.0921 25.507C14.0131 25.6942 13.8971 25.863 13.7513 26.003C13.6056 26.1431 13.4331 26.2515 13.2445 26.3216C13.0559 26.3916 12.8552 26.4219 12.6546 26.4104C12.454 26.399 12.2579 26.3462 12.0782 26.2551C11.8986 26.1641 11.7391 26.0368 11.6098 25.8811C11.4804 25.7253 11.3839 25.5445 11.326 25.3495C11.2682 25.1546 11.2503 24.9497 11.2734 24.7475C11.2965 24.5453 11.3602 24.3501 11.4605 24.1737C12.2763 22.667 13.0526 21.187 13.8158 19.7204L20.2895 7.0937L11.9737 8.42703C11.6437 8.4853 11.3353 8.63238 11.0806 8.85288C10.826 9.07337 10.6346 9.35917 10.5263 9.68037V27.1204C10.6224 27.3914 10.8026 27.6235 11.0397 27.7822C11.2769 27.9408 11.5584 28.0173 11.8421 28.0004H31.9605C32.3274 28.0328 32.6929 27.9248 32.9851 27.6978C33.2773 27.4708 33.4751 27.1411 33.5395 26.7737L33.6184 26.467H35.0658C35.2616 26.4808 35.4573 26.4396 35.6315 26.3478C35.8056 26.2561 35.9513 26.1174 36.0526 25.947C36.2223 25.6729 36.3426 25.3704 36.4079 25.0537C36.5131 24.467 36.5526 23.8537 36.6184 23.2537C36.8465 21.1026 37.0702 18.947 37.2895 16.787C37.2877 16.7527 37.2928 16.7183 37.3046 16.686C37.3163 16.6537 37.3345 16.6242 37.3579 16.5992C37.3813 16.5743 37.4094 16.5544 37.4407 16.5408C37.4719 16.5273 37.5055 16.5203 37.5395 16.5204C37.8816 16.5204 38.1974 16.4004 38.5263 16.3337C39.4059 16.1912 40.2425 15.8493 40.9737 15.3337C41.3531 15.069 41.6573 14.708 41.8558 14.2869C42.0544 13.8657 42.1404 13.3991 42.1053 12.9337C42.1456 12.5774 42.0534 12.2187 41.8465 11.9277C41.6397 11.6367 41.3331 11.4344 40.9868 11.3604ZM36.5526 7.8937C36.421 8.78703 36.3684 9.70703 36.2763 10.5604C36.1184 12.1337 35.9737 13.707 35.8158 15.2937L35.3421 20.0004C35.2017 21.3337 35.057 22.667 34.9079 24.0004C34.8972 24.1324 34.8558 24.2599 34.7872 24.3726C34.7186 24.4853 34.6246 24.58 34.513 24.6489C34.4014 24.7178 34.2753 24.759 34.1449 24.7691C34.0146 24.7792 33.8838 24.7579 33.7631 24.707L35.5263 6.3737C35.779 6.55903 36.0207 6.75939 36.25 6.9737C36.3712 7.08714 36.4624 7.22957 36.5153 7.38796C36.5682 7.54635 36.581 7.71565 36.5526 7.88036V7.8937ZM39.8026 14.5604C39.6494 14.5571 39.4984 14.5224 39.3587 14.4582C39.2191 14.3941 39.0939 14.3018 38.9905 14.1871C38.8871 14.0724 38.8079 13.9376 38.7575 13.7909C38.7071 13.6442 38.6866 13.4887 38.6974 13.3337C38.6974 13.1849 38.7263 13.0375 38.7825 12.9C38.8387 12.7625 38.9211 12.6375 39.0249 12.5323C39.1288 12.4271 39.2521 12.3436 39.3878 12.2866C39.5235 12.2297 39.6689 12.2004 39.8158 12.2004C40.1176 12.2021 40.4064 12.3253 40.6186 12.5429C40.8309 12.7604 40.9491 13.0545 40.9474 13.3604C40.9456 13.6662 40.824 13.9589 40.6093 14.1739C40.3947 14.389 40.1045 14.5088 39.8026 14.507V14.5604ZM40.5395 13.3337C40.5361 13.5236 40.4601 13.7047 40.3276 13.839C40.1951 13.9733 40.0163 14.0503 39.8289 14.0537C39.6884 14.0537 39.551 14.0115 39.4342 13.9324C39.3173 13.8532 39.2263 13.7408 39.1725 13.6092C39.1187 13.4777 39.1046 13.3329 39.1321 13.1932C39.1595 13.0536 39.2271 12.9253 39.3265 12.8246C39.4259 12.7239 39.5525 12.6553 39.6903 12.6275C39.8281 12.5998 39.971 12.614 40.1008 12.6685C40.2307 12.723 40.3416 12.8153 40.4197 12.9337C40.4978 13.0521 40.5395 13.1913 40.5395 13.3337Z" fill="#26BCBC"/>
<path d="M12.3158 26.5195C12.09 26.4494 11.8842 26.3254 11.7156 26.1578C11.547 25.9902 11.4206 25.784 11.3471 25.5566C11.2736 25.3292 11.2551 25.0872 11.2931 24.8511C11.3312 24.6149 11.4247 24.3914 11.5658 24.1995C12.2763 22.6662 13.0526 21.1862 13.8158 19.7195L21.3816 4.98621C21.5303 4.62699 21.8117 4.3409 22.1657 4.18895C22.5197 4.037 22.9182 4.03123 23.2763 4.17287C22.9168 4.01092 22.5086 3.99997 22.1411 4.14242C21.7736 4.28488 21.4769 4.56912 21.3158 4.93287L13.5395 19.8129C12.75 21.3329 11.9605 22.8262 11.1974 24.3329C11.0254 24.6078 10.9459 24.9318 10.9708 25.2563C10.9957 25.5808 11.1237 25.8884 11.3355 26.1331C11.5474 26.3778 11.8317 26.5464 12.146 26.6136C12.4603 26.6809 12.7876 26.6432 13.079 26.5062C12.8126 26.5847 12.5296 26.5847 12.2632 26.5062L12.3158 26.5195ZM28.5658 8.75954C28.6964 8.49983 28.9031 8.28739 29.1575 8.15134C29.4119 8.01528 29.7016 7.96226 29.9869 7.99954C29.6904 7.94114 29.3832 7.98089 29.1107 8.11294C28.8383 8.245 28.6149 8.46234 28.4737 8.73287C27.4079 10.8262 25.6974 14.3595 24.6316 16.5729L28.5658 8.75954ZM29.8816 23.7995C29.5012 23.7995 29.1364 23.6464 28.8675 23.3739C28.5985 23.1013 28.4474 22.7317 28.4474 22.3462V15.6795H28.2895H28.3684V22.4395C28.3684 22.8285 28.5209 23.2016 28.7924 23.4766C29.0638 23.7517 29.4319 23.9062 29.8158 23.9062C30.1997 23.9062 30.5678 23.7517 30.8392 23.4766C31.1107 23.2016 31.2632 22.8285 31.2632 22.4395V22.3062C31.2685 22.5015 31.2349 22.6959 31.1644 22.8778C31.0938 23.0596 30.9879 23.2252 30.8527 23.3646C30.7176 23.504 30.5562 23.6144 30.378 23.6891C30.1998 23.7639 30.0086 23.8014 29.8158 23.7995H29.8816ZM31.2237 9.33287C31.2264 9.38172 31.2264 9.43069 31.2237 9.47954V9.33287ZM22.3684 24.5862C22.0789 24.5106 21.8235 24.3374 21.6441 24.095C21.4647 23.8527 21.3721 23.5557 21.3816 23.2529V11.7862H21.2237V23.3862C21.2309 23.6926 21.3361 23.9883 21.5236 24.2288C21.7111 24.4693 21.9707 24.6416 22.2632 24.7195C22.5137 24.7881 22.7777 24.7871 23.0277 24.7167C23.2777 24.6463 23.5045 24.5092 23.6842 24.3195C23.503 24.4693 23.2883 24.5719 23.059 24.6184C22.8297 24.6649 22.5926 24.6538 22.3684 24.5862Z" fill="#00AAA8"/>
</svg>
