<svg width="50" height="32" viewBox="0 0 50 32" fill="none" xmlns="http://www.w3.org/2000/svg">
<path d="M45.3947 0.666992H4.60527C2.42519 0.666992 0.657898 2.45785 0.657898 4.66699V27.3337C0.657898 29.5428 2.42519 31.3337 4.60527 31.3337H45.3947C47.5748 31.3337 49.3421 29.5428 49.3421 27.3337V4.66699C49.3421 2.45785 47.5748 0.666992 45.3947 0.666992Z" fill="white" stroke="black" stroke-opacity="0.07"/>
<path fill-rule="evenodd" clip-rule="evenodd" d="M42.1053 21.0275L44.7369 11.1475L47.3684 16.2408L42.1053 21.0275Z" fill="#097A44"/>
<path fill-rule="evenodd" clip-rule="evenodd" d="M40.4737 21.0532L43.1053 11.1865L45.7369 16.2799L40.4737 21.0532Z" fill="#F46F20"/>
<path fill-rule="evenodd" clip-rule="evenodd" d="M27.1974 10.9335C26.9278 10.6676 26.6051 10.4634 26.251 10.3345C25.8969 10.2057 25.5197 10.1554 25.1447 10.1868H21.1974L18.6316 19.2668H20.9342L21.8026 16.1868H23.4211C24.301 16.2187 25.1706 15.9868 25.9211 15.5202C26.6691 14.9608 27.1925 14.1463 27.3947 13.2268C27.5578 12.8593 27.6253 12.4556 27.5907 12.0541C27.5562 11.6527 27.4208 11.2669 27.1974 10.9335ZM22.9737 12.1868H24.4474C24.7051 12.1558 24.9646 12.2275 25.1711 12.3868C25.3158 12.5335 25.2632 12.8535 25.1711 13.0935C25.0968 13.4231 24.9105 13.7158 24.6447 13.9202C24.372 14.1028 24.0504 14.1959 23.7237 14.1868H22.3684L22.9737 12.1868ZM12.0263 12.0002C11.9923 11.7141 11.9029 11.4377 11.7632 11.1868C11.5868 10.8771 11.3202 10.6303 11 10.4802C10.547 10.3044 10.0637 10.2228 9.57896 10.2402H5.26317L2.63159 19.2402H4.90791L5.85528 15.8802H7.50001C8.11843 15.8802 8.26317 16.0135 8.28949 16.0535C8.3158 16.0935 8.40791 16.2535 8.28949 16.9202L8.07896 17.7202C8.00758 17.9775 7.95915 18.2407 7.93422 18.5068V19.2402H10.2895L10.4474 18.6668L10.3026 18.5602C10.3026 18.5602 10.2105 18.4935 10.2237 18.2935C10.2592 18.0402 10.3158 17.7908 10.3947 17.5468L10.5263 16.9868C10.6984 16.5139 10.7438 16.0033 10.6579 15.5068C10.5967 15.2957 10.4782 15.1063 10.3158 14.9602C10.6625 14.7895 10.9679 14.5437 11.2105 14.2402C11.5304 13.8487 11.7678 13.3949 11.9079 12.9068C12 12.6135 12.0408 12.3068 12.0263 12.0002ZM9.57896 13.1068C9.54143 13.2842 9.46195 13.4497 9.34735 13.589C9.23275 13.7284 9.08646 13.8374 8.92107 13.9068C8.64987 13.9983 8.36452 14.0389 8.07896 14.0268H6.39475L6.89475 12.2535H8.77633C9.015 12.2344 9.25461 12.2757 9.4737 12.3735C9.53949 12.3735 9.75001 12.4668 9.57896 13.0402V13.1068ZM16.0263 16.0002C15.9473 16.319 15.8137 16.6214 15.6316 16.8935C15.5045 17.0797 15.3327 17.23 15.1325 17.3303C14.9322 17.4306 14.71 17.4776 14.4869 17.4668C14.0395 17.4668 14.0132 17.2802 13.9869 17.2002C13.9684 16.965 13.9998 16.7286 14.079 16.5068L15.25 12.3602H13.0263L11.8947 16.3602C11.7 16.9245 11.6325 17.5259 11.6974 18.1202C11.8026 18.6802 12.2237 19.3335 13.5526 19.3335C13.8776 19.3388 14.2013 19.2935 14.5132 19.2002C14.7921 19.1074 15.0576 18.9774 15.3026 18.8135L15.1974 19.2135H17.329L19.2632 12.3735H17.1053L16.0263 16.0002ZM33.0395 17.4668L33.8684 14.5602C34.1842 13.4535 33.7763 12.9468 33.3816 12.7068C32.8286 12.404 32.2073 12.2523 31.579 12.2668C30.6199 12.219 29.6789 12.5432 28.9474 13.1735C28.5336 13.5819 28.2222 14.0848 28.0395 14.6402L27.9211 14.9868H30.0395V14.8402C30.1163 14.6555 30.228 14.4879 30.3684 14.3468C30.5793 14.1842 30.8408 14.1038 31.1053 14.1202C31.3128 14.1005 31.5217 14.1373 31.7105 14.2268V14.4668C31.7105 14.5468 31.7105 14.6668 31.3816 14.7735C31.1768 14.8424 30.9649 14.8872 30.75 14.9068L30.1711 14.9735C29.6036 15.0246 29.0482 15.1687 28.5263 15.4002C27.7763 15.7615 27.2237 16.4402 27.0132 17.2535C26.9087 17.5211 26.8744 17.8116 26.9136 18.0967C26.9527 18.3817 27.0641 18.6517 27.2369 18.8802C27.6171 19.2895 28.1579 19.5042 28.7105 19.4668C29.1988 19.4661 29.6804 19.3521 30.1184 19.1335L30.6447 18.8268V19.2668H32.8947L33.0658 18.6268L32.8947 18.5335C32.8772 18.4365 32.8772 18.3371 32.8947 18.2402C32.8947 17.9068 32.9869 17.6668 33.0395 17.4668ZM29.1974 17.3335C29.2289 17.2168 29.2853 17.1086 29.3626 17.0165C29.4399 16.9243 29.5362 16.8505 29.6447 16.8002C29.8846 16.6992 30.1369 16.632 30.3947 16.6002L30.7763 16.5335L31.1711 16.4402V16.5335C31.08 16.9407 30.8403 17.298 30.5 17.5335C30.2142 17.71 29.8873 17.8066 29.5526 17.8135C29.4936 17.8187 29.4341 17.8119 29.3776 17.7936C29.3211 17.7753 29.2688 17.7458 29.2237 17.7068C29.1832 17.5868 29.1741 17.4581 29.1974 17.3335ZM39.6053 12.4268L37.3816 16.4268V12.4268H35.0132L35.5263 19.2668L35.3684 19.5202C35.2923 19.6519 35.1891 19.7656 35.0658 19.8535C34.9686 19.91 34.8612 19.9462 34.75 19.9602H33.8553L33.3421 21.7868H34.4342C35.0345 21.837 35.6337 21.677 36.1316 21.3335C36.7708 20.639 37.3313 19.8743 37.8026 19.0535L41.9737 12.3868L39.6053 12.4268Z" fill="#302F82"/>
</svg>
