<svg width="50" height="32" viewBox="0 0 50 32" fill="none" xmlns="http://www.w3.org/2000/svg">
<path fill-rule="evenodd" clip-rule="evenodd" d="M45.3947 32H4.60526C2.10526 32 0 29.8667 0 27.3333V4.66667C0 2.13333 2.10526 0 4.60526 0H45.3947C47.8947 0 50 2.13333 50 4.66667V27.3333C50 29.8667 47.8947 32 45.3947 32Z" fill="#EDEDED"/>
<path fill-rule="evenodd" clip-rule="evenodd" d="M4.60527 1.33301C2.76316 1.33301 1.3158 2.79967 1.3158 4.66634V27.333C1.3158 29.1997 2.76316 30.6663 4.60527 30.6663H45.3947C47.2368 30.6663 48.6842 29.1997 48.6842 27.333V4.66634C48.6842 2.79967 47.2368 1.33301 45.3947 1.33301H4.60527Z" fill="white"/>
<path d="M25 28C31.3949 28 36.579 22.6274 36.579 16C36.579 9.37258 31.3949 4 25 4C18.6052 4 13.4211 9.37258 13.4211 16C13.4211 22.6274 18.6052 28 25 28Z" fill="#378F43"/>
<path fill-rule="evenodd" clip-rule="evenodd" d="M25.1316 11.7329L22.3684 20.5329H19.4737L22.2369 11.7329H25.1316ZM30.5263 11.7329L27.7632 20.3996H24.7368L27.5 11.5996L30.5263 11.7329Z" fill="#8BC249"/>
<path fill-rule="evenodd" clip-rule="evenodd" d="M16.7105 11.7334L19.4737 20.5334H22.3684L19.7368 11.7334H16.7105ZM22.2368 11.7334L25 20.5334H28.0263L25.2631 11.7334H22.2368ZM27.6316 11.7334L30.3947 20.5334H33.421L30.6579 11.7334H27.6316Z" fill="white"/>
</svg>
