<svg width="50" height="32" viewBox="0 0 50 32" fill="none" xmlns="http://www.w3.org/2000/svg">
<path d="M45.3947 0.666992H4.60527C2.42519 0.666992 0.657898 2.45785 0.657898 4.66699V27.3337C0.657898 29.5428 2.42519 31.3337 4.60527 31.3337H45.3947C47.5748 31.3337 49.3421 29.5428 49.3421 27.3337V4.66699C49.3421 2.45785 47.5748 0.666992 45.3947 0.666992Z" fill="white" stroke="black" stroke-opacity="0.07"/>
<path d="M19.0132 9.36624H18.5132V9.86624V14.5529H16.2895V7.05957H23.579V9.36624H19.0132ZM31.5 9.86624V9.36624H31H26.4211V7.05957H33.7105V14.5529H31.5V9.86624ZM30.9869 22.6329H31.4869V22.1329V17.4462H33.7105V24.9262H26.4211V22.6329H30.9869ZM18.5132 22.1329V22.6329H19.0132H23.579V24.9262H16.2895V17.4462H18.5132V22.1329Z" fill="#ED232A"/>
<path d="M19.0132 9.36624H18.5132V9.86624V14.5529H16.2895V7.05957H23.579V9.36624H19.0132ZM31.5 9.86624V9.36624H31H26.4211V7.05957H33.7105V14.5529H31.5V9.86624ZM30.9869 22.6329H31.4869V22.1329V17.4462H33.7105V24.9262H26.4211V22.6329H30.9869ZM18.5132 22.1329V22.6329H19.0132H23.579V24.9262H16.2895V17.4462H18.5132V22.1329Z" stroke="black"/>
<path d="M19.0132 9.36624H18.5132V9.86624V14.5529H16.2895V7.05957H23.579V9.36624H19.0132ZM31.5 9.86624V9.36624H31H26.4211V7.05957H33.7105V14.5529H31.5V9.86624ZM30.9869 22.6329H31.4869V22.1329V17.4462H33.7105V24.9262H26.4211V22.6329H30.9869ZM18.5132 22.1329V22.6329H19.0132H23.579V24.9262H16.2895V17.4462H18.5132V22.1329Z" stroke="black" stroke-opacity="0.2"/>
<path d="M22.8581 18.3262L22.7606 13.6729H27.2632V18.3262H22.8581Z" fill="#004C8F"/>
<path d="M22.8581 18.3262L22.7606 13.6729H27.2632V18.3262H22.8581Z" stroke="black"/>
<path d="M22.8581 18.3262L22.7606 13.6729H27.2632V18.3262H22.8581Z" stroke="black" stroke-opacity="0.2"/>
</svg>
