<svg width="50" height="32" viewBox="0 0 50 32" fill="none" xmlns="http://www.w3.org/2000/svg">
<path opacity="0.07" d="M46.0526 0H3.94737C1.71053 0 0 1.73333 0 4V28C0 30.2667 1.84211 32 3.94737 32H46.0526C48.2895 32 50 30.2667 50 28V4C50 1.73333 48.1579 0 46.0526 0Z" fill="black"/>
<path d="M46.0526 1.33301C47.5 1.33301 48.6842 2.53301 48.6842 3.99967V27.9997C48.6842 29.4663 47.5 30.6663 46.0526 30.6663H3.94737C2.50001 30.6663 1.3158 29.4663 1.3158 27.9997V3.99967C1.3158 2.53301 2.50001 1.33301 3.94737 1.33301H46.0526Z" fill="white"/>
<path d="M37.2368 13.467H36.8421C36.3158 14.8003 35.921 15.467 35.5263 17.467H38.0263C37.6315 15.467 37.6315 14.5337 37.2368 13.467ZM41.0526 21.3337H38.8158C38.6842 21.3337 38.6842 21.3337 38.5526 21.2003L38.2894 20.0003L38.1579 19.7337H35C34.8684 19.7337 34.7368 19.7337 34.7368 20.0003L34.3421 21.2003C34.3421 21.3337 34.2105 21.3337 34.2105 21.3337H31.4473L31.7105 20.667L35.5263 11.6003C35.5263 10.9337 35.921 10.667 36.5789 10.667H38.5526C38.6842 10.667 38.8158 10.667 38.8158 10.9337L40.6579 19.6003C40.7894 20.1337 40.921 20.5337 40.921 21.067C41.0526 21.2003 41.0526 21.2003 41.0526 21.3337ZM23.421 20.9337L23.9473 18.5337C24.0789 18.5337 24.2105 18.667 24.2105 18.667C25.1315 19.067 26.0526 19.3337 26.9737 19.2003C27.2368 19.2003 27.6316 19.067 27.8947 18.9337C28.5526 18.667 28.5526 18.0003 28.0263 17.467C27.7631 17.2003 27.3684 17.067 26.9737 16.8003C26.4473 16.5337 25.921 16.267 25.5263 15.867C23.9473 14.5337 24.4737 12.667 25.3947 11.7337C26.1842 11.2003 26.5789 10.667 27.6315 10.667C29.2105 10.667 30.921 10.667 31.7105 10.9337H31.8421C31.7105 11.7337 31.5789 12.4003 31.3158 13.2003C30.6579 12.9337 30 12.667 29.3421 12.667C28.9473 12.667 28.5526 12.667 28.1579 12.8003C27.8947 12.8003 27.7631 12.9337 27.6315 13.067C27.3684 13.3337 27.3684 13.7337 27.6315 14.0003L28.2894 14.5337C28.8158 14.8003 29.3421 15.067 29.7368 15.3337C30.3947 15.7337 31.0526 16.4003 31.1842 17.2003C31.4473 18.4003 31.0526 19.467 30 20.267C29.3421 20.8003 29.0789 21.067 28.1579 21.067C26.3158 21.067 24.8684 21.2003 23.6842 20.8003C23.5526 21.067 23.5526 21.067 23.421 20.9337ZM18.8158 21.3337C18.9473 20.4003 18.9473 20.4003 19.0789 20.0003C19.7368 17.067 20.3947 14.0003 20.921 11.067C21.0526 10.8003 21.0526 10.667 21.3158 10.667H23.6842C23.421 12.267 23.1579 13.467 22.7631 14.9337C22.3684 16.9337 21.9737 18.9337 21.4473 20.9337C21.4473 21.2003 21.3158 21.2003 21.0526 21.2003L18.8158 21.3337ZM6.57892 10.9337C6.57892 10.8003 6.84208 10.667 6.97366 10.667H11.4473C12.1052 10.667 12.6315 11.067 12.7631 11.7337L13.9473 17.6003C13.9473 17.7337 13.9473 17.7337 14.0789 17.867C14.0789 17.7337 14.2105 17.7337 14.2105 17.7337L16.9737 10.9337C16.8421 10.8003 16.9737 10.667 17.1052 10.667H19.8684C19.8684 10.8003 19.8684 10.8003 19.7368 10.9337L15.6579 20.667C15.5263 20.9337 15.5263 21.067 15.3947 21.2003C15.2631 21.3337 15 21.2003 14.7368 21.2003H12.7631C12.6315 21.2003 12.5 21.2003 12.5 20.9337L10.3947 12.667C10.1316 12.4003 9.73681 12.0003 9.2105 11.867C8.42102 11.467 6.97366 11.2003 6.7105 11.2003L6.57892 10.9337Z" fill="#142688"/>
</svg>
